<?xml version="1.0" encoding="iso-8859-1"?>
<!-- Uploaded to: SVG Repo, www.svgrepo.com, Generator: SVG Repo Mixer Tools -->
<svg fill="#121212" height="800px" width="800px" version="1.1" id="Capa_1" xmlns="http://www.w3.org/2000/svg" xmlns:xlink="http://www.w3.org/1999/xlink" 
	 viewBox="0 0 490.4 490.4" xml:space="preserve">
<g transform="rotate(-90, 245.2, 245.2)">
	<g>
		<path d="M138.7,257.5h183.4l-48,48c-4.8,4.8-4.8,12.5,0,17.3c2.4,2.4,5.5,3.6,8.7,3.6s6.3-1.2,8.7-3.6l68.9-68.9
			c4.8-4.8,4.8-12.5,0-17.3l-68.9-68.9c-4.8-4.8-12.5-4.8-17.3,0s-4.8,12.5,0,17.3l48,48H138.7c-6.8,0-12.3,5.5-12.3,12.3
			C126.4,252.1,131.9,257.5,138.7,257.5z"/>
	</g>
</g>
</svg>